{"title":"The Shawshank Redemption 1994 DVDRiP-Deemu","uid":5997923,"size":794702764,"categoryP":"video","categoryS":"movies","magnet":"?xt=urn:btih:29da3beeaf8a20326cd6c932dabe4436a326e845&amp;dn=The+Shawshank+Redemption+1994+DVDRiP-Deemu&amp;tr=udp%3A%2F%2Ftracker.openbittorrent.com%3A80&amp;tr=udp%3A%2F%2Fopen.demonii.com%3A1337&amp;tr=udp%3A%2F%2Ftracker.coppersurfer.tk%3A6969&amp;tr=udp%3A%2F%2Fexodus.desync.com%3A6969","seeders":0,"leechers":0,"uploader":"treacherous_hawk","files":4,"time":1291090446,"description":"Cover:\n=================================================================================== &lt;a href=&quot;\nhttp://img87.imageshack.us/img87/241/theshawshankredemption.jpg&quot; rel=&quot;nofollow&quot; target=&quot;_NEW&quot;&gt;\nhttp://img87.imageshack.us/img87/241/theshawshankredemption.jpg&lt;/a&gt;\n===================================================================================\n\nStoryline:\n===================================================================================\nAndy Dufresne is a young and successful banker whose life changes drastically when he is convicted and sentenced to life imprisonment for the murder of his wife and her lover. Set in the 1940's, the film shows how Andy, with the help of his friend Red, the prison entrepreneur, turns out to be a most unconventional prisoner.\n===================================================================================\n\nCast:\n===================================================================================\nTim Robbins as Andy Dufresne\nMorgan Freeman as Ellis Boyd &quot;Red&quot; Redding\nBob Gunton as Warden Samuel Norton\nWilliam Sadler as Heywood\nClancy Brown as Capt. Byron Hadley\nGil Bellows as Tommy Williams\nMark Rolston as Bogs Diamond\nJames Whitmore as Brooks Hatlen\n===================================================================================\n\nVideo Specs:\n===================================================================================\nFormat                           : AVC\nFormat/Info                      : Advanced Video Codec\nFormat profile                   : &lt;a class=&quot;__cf_email__&quot; href=&quot;/cdn-cgi/l/email-protection&quot; data-cfemail=&quot;feb6979996beb2ccd0cf&quot;&gt;[email&amp;#160;protected]&lt;/a&gt;&lt;script cf-hash='f9e31' type=&quot;text/javascript&quot;&gt;\n/* &lt;![CDATA[ */!function(){try{var t=&quot;currentScript&quot;in document?document.currentScript:function(){for(var t=document.getElementsByTagName(&quot;script&quot;),e=t.length;e--;)if(t[e].getAttribute(&quot;cf-hash&quot;))return t[e]}();if(t&amp;&amp;t.previousSibling){var e,r,n,i,c=t.previousSibling,a=c.getAttribute(&quot;data-cfemail&quot;);if(a){for(e=&quot;&quot;,r=parseInt(a.substr(0,2),16),n=2;a.length-n;n+=2)i=parseInt(a.substr(n,2),16)^r,e+=String.fromCharCode(i);e=document.createTextNode(e),c.parentNode.replaceChild(e,c)}}}catch(u){}}();/* ]]&gt; */&lt;/script&gt;\nFormat settings, CABAC           : Yes\nFormat settings, ReFrames        : 4 frames\nFormat settings, GOP             : M=4, N=32\nCodec ID                         : avc1\nCodec ID/Info                    : Advanced Video Coding\nDuration                         : 2h 18mn\nBit rate mode                    : Variable\nBit rate                         : 652 Kbps\nMaximum bit rate                 : 3 159 Kbps\nWidth                            : 480 pixels\nHeight                           : 272 pixels\nDisplay aspect ratio             : 1.654\nOriginal display aspect ratio    : 1.658\nFrame rate mode                  : Constant\nFrame rate                       : 23.976 fps\nColor space                      : YUV\nChroma subsampling               : 4:2:0\nBit depth                        : 8 bits\nScan type                        : Progressive\nBits/(Pixel*Frame)               : 0.208\nStream size                      : 648 MiB (86%)\n===================================================================================\n\nAudio Specs:\n===================================================================================\nFormat                           : MPEG Audio\nFormat version                   : Version 1\nFormat profile                   : Layer 3\nMode                             : Joint stereo\nMode extension                   : MS Stereo\nCodec ID                         : 6B\nDuration                         : 2h 18mn\nBit rate mode                    : Variable\nBit rate                         : 107 Kbps\nMinimum bit rate                 : 32.0 Kbps\nMaximum bit rate                 : 154 Kbps\nChannel(s)                       : 2 channels\nSampling rate                    : 48.0 KHz\nStream size                      : 106 MiB (14%)\n===================================================================================\n\nScreens:\n=================================================================================== &lt;a href=&quot;\nhttp://img143.imageshack.us/img143/7673/vlcsnap2010113008h28m02.png&quot; rel=&quot;nofollow&quot; target=&quot;_NEW&quot;&gt;\nhttp://img143.imageshack.us/img143/7673/vlcsnap2010113008h28m02.png&lt;/a&gt; &lt;a href=&quot;\nhttp://img683.imageshack.us/img683/483/vlcsnap2010113008h28m31.png&quot; rel=&quot;nofollow&quot; target=&quot;_NEW&quot;&gt;\nhttp://img683.imageshack.us/img683/483/vlcsnap2010113008h28m31.png&lt;/a&gt; &lt;a href=&quot;\nhttp://img547.imageshack.us/img547/9481/vlcsnap2010113008h28m44.png&quot; rel=&quot;nofollow&quot; target=&quot;_NEW&quot;&gt;\nhttp://img547.imageshack.us/img547/9481/vlcsnap2010113008h28m44.png&lt;/a&gt; &lt;a href=&quot;\nhttp://img7.imageshack.us/img7/2278/vlcsnap2010113008h29m13.png&quot; rel=&quot;nofollow&quot; target=&quot;_NEW&quot;&gt;\nhttp://img7.imageshack.us/img7/2278/vlcsnap2010113008h29m13.png&lt;/a&gt; &lt;a href=&quot;\nhttp://img28.imageshack.us/img28/3916/vlcsnap2010113008h29m31.png&quot; rel=&quot;nofollow&quot; target=&quot;_NEW&quot;&gt;\nhttp://img28.imageshack.us/img28/3916/vlcsnap2010113008h29m31.png&lt;/a&gt; &lt;a href=&quot;\nhttp://img808.imageshack.us/img808/4422/vlcsnap2010113008h30m35.png&quot; rel=&quot;nofollow&quot; target=&quot;_NEW&quot;&gt;\nhttp://img808.imageshack.us/img808/4422/vlcsnap2010113008h30m35.png&lt;/a&gt; &lt;a href=&quot;\nhttp://img263.imageshack.us/img263/328/vlcsnap2010113008h30m45.png&quot; rel=&quot;nofollow&quot; target=&quot;_NEW&quot;&gt;\nhttp://img263.imageshack.us/img263/328/vlcsnap2010113008h30m45.png&lt;/a&gt; &lt;a href=&quot;\nhttp://img843.imageshack.us/img843/4938/vlcsnap2010113008h31m50.png&quot; rel=&quot;nofollow&quot; target=&quot;_NEW&quot;&gt;\nhttp://img843.imageshack.us/img843/4938/vlcsnap2010113008h31m50.png&lt;/a&gt; &lt;a href=&quot;\nhttp://img19.imageshack.us/img19/1676/vlcsnap2010113008h32m34.png&quot; rel=&quot;nofollow&quot; target=&quot;_NEW&quot;&gt;\nhttp://img19.imageshack.us/img19/1676/vlcsnap2010113008h32m34.png&lt;/a&gt;\n===================================================================================\nEnjoy!!","torrent":{"xt":"urn:btih:29da3beeaf8a20326cd6c932dabe4436a326e845","amp;dn":"The+Shawshank+Redemption+1994+DVDRiP-Deemu","amp;tr":["udp%3A%2F%2Ftracker.openbittorrent.com%3A80","udp%3A%2F%2Fopen.demonii.com%3A1337","udp%3A%2F%2Ftracker.coppersurfer.tk%3A6969","udp%3A%2F%2Fexodus.desync.com%3A6969"],"infoHash":"29da3beeaf8a20326cd6c932dabe4436a326e845","infoHashBuffer":{"type":"Buffer","data":[41,218,59,238,175,138,32,50,108,214,201,50,218,190,68,54,163,38,232,69]},"announce":[],"urlList":[]}}